<?xml version="1.0" standalone="no"?>
<!DOCTYPE svg PUBLIC "-//W3C//DTD SVG 20010904//EN"
 "http://www.w3.org/TR/2001/REC-SVG-20010904/DTD/svg10.dtd">
<svg version="1.0" xmlns="http://www.w3.org/2000/svg"
 width="256.000000pt" height="256.000000pt" viewBox="0 0 256.000000 256.000000"
 preserveAspectRatio="xMidYMid meet">
<metadata>
Created by potrace 1.14, written by Peter Selinger 2001-2017
</metadata>
<g transform="translate(0.000000,256.000000) scale(0.100000,-0.100000)"
fill="#000000" stroke="none">
<path d="M1075 2543 c-38 -7 -77 -15 -85 -16 -16 -4 -99 -26 -115 -31 -5 -2
-14 -5 -20 -6 -5 -1 -26 -10 -45 -20 -19 -10 -37 -18 -40 -18 -7 0 -84 -36
-90 -42 -3 -3 -16 -10 -30 -17 -14 -6 -65 -39 -114 -74 -255 -183 -441 -461
-505 -759 -5 -25 -13 -58 -17 -75 -13 -61 -12 -329 2 -405 21 -106 29 -145 40
-180 3 -8 5 -17 5 -20 1 -3 5 -11 11 -17 6 -7 7 -13 3 -13 -4 0 -2 -7 5 -15 7
-8 10 -15 7 -15 -10 0 83 -181 125 -244 137 -204 300 -344 531 -458 31 -15 63
-28 70 -28 7 0 17 -4 22 -8 12 -11 146 -50 195 -57 19 -3 53 -9 75 -12 53 -10
298 -10 355 -1 65 10 100 18 145 30 22 5 40 9 40 9 0 -6 148 55 207 85 100 51
139 76 238 156 185 150 317 338 399 571 17 49 33 103 36 120 3 18 8 39 10 47
13 48 19 121 19 245 1 142 -3 189 -24 280 -6 28 -13 57 -15 65 -16 77 -97 256
-160 354 -41 64 -134 178 -174 214 -14 13 -42 38 -61 56 -19 17 -53 45 -75 61
-22 17 -42 32 -45 35 -9 9 -64 40 -144 81 -82 42 -261 105 -325 115 -20 3 -47
8 -61 11 -56 12 -327 10 -395 -4z"/>
</g>
</svg>
